<?xml version="1.0" standalone="no"?>
<!DOCTYPE svg PUBLIC "-//W3C//DTD SVG 20010904//EN"
 "http://www.w3.org/TR/2001/REC-SVG-20010904/DTD/svg10.dtd">
<svg version="1.0" xmlns="http://www.w3.org/2000/svg"
 width="1024.000000pt" height="1024.000000pt" viewBox="0 0 1024.000000 1024.000000"
 preserveAspectRatio="xMidYMid meet">
<metadata>
Created by potrace 1.14, written by Peter Selinger 2001-2017
</metadata>
<g transform="translate(0.000000,1024.000000) scale(0.100000,-0.100000)"
fill="#000000" stroke="none">
<path d="M0 5120 l0 -5120 5120 0 5120 0 0 5120 0 5120 -5120 0 -5120 0 0
-5120z m4440 3150 c0 -11 -11 -127 -25 -258 -14 -130 -50 -487 -80 -792 -30
-305 -105 -1045 -165 -1645 -60 -599 -124 -1235 -142 -1412 -18 -178 -35 -323
-38 -323 -3 0 -34 82 -68 182 -35 101 -81 234 -103 296 -21 61 -57 164 -79
227 -22 63 -58 166 -79 228 -22 61 -99 284 -172 495 -73 210 -135 382 -139
382 -8 0 -81 -229 -120 -380 -140 -543 -167 -974 -81 -1300 79 -296 250 -566
473 -744 106 -85 184 -123 288 -141 89 -16 260 -20 260 -7 0 4 -9 34 -19 68
-37 115 -72 319 -83 478 -26 376 54 798 243 1281 184 471 584 984 964 1240
293 196 595 237 853 115 105 -50 158 -87 228 -158 136 -138 218 -307 267 -546
19 -98 22 -141 22 -366 0 -281 -13 -410 -66 -670 -147 -712 -483 -1278 -1003
-1693 -55 -43 -105 -81 -113 -84 -28 -11 -10 -34 55 -70 90 -50 223 -100 306
-113 171 -27 496 44 726 160 246 124 488 354 617 588 20 37 38 69 39 71 2 2
32 -15 66 -37 139 -90 390 -196 563 -239 55 -14 101 -26 102 -27 11 -10 -196
-346 -219 -354 -4 -2 -8 -10 -8 -17 0 -7 -3 -15 -7 -17 -5 -1 -26 -25 -48 -53
-48 -61 -52 -64 -76 -58 -10 3 -19 0 -19 -6 0 -6 -11 -11 -25 -11 -14 0 -33
-4 -43 -9 -29 -15 -184 -59 -235 -67 -26 -3 -50 -10 -53 -15 -3 -5 -16 -9 -30
-9 -13 0 -24 -4 -24 -9 0 -5 -15 -11 -32 -14 -34 -5 -62 -13 -158 -43 -30 -9
-79 -19 -107 -21 -29 -3 -53 -9 -53 -14 0 -5 -11 -9 -25 -9 -14 0 -33 -4 -43
-9 -9 -5 -57 -21 -107 -36 -49 -15 -100 -31 -111 -35 -12 -5 -42 -12 -68 -15
-25 -4 -49 -11 -52 -16 -3 -5 -16 -9 -30 -9 -13 0 -32 -4 -42 -9 -9 -5 -44
-17 -77 -26 -33 -10 -71 -21 -85 -26 -14 -4 -54 -13 -90 -19 -36 -7 -74 -15
-85 -20 -11 -5 -29 -11 -40 -13 -77 -20 -172 -50 -179 -58 -6 -5 -25 -9 -43
-9 -18 0 -33 -4 -33 -10 0 -5 -7 -7 -16 -3 -8 3 -25 1 -37 -5 -41 -19 -202
-65 -245 -70 -23 -2 -45 -9 -48 -13 -3 -5 -16 -9 -29 -9 -13 0 -25 -6 -28 -12
-5 -16 -200 80 -309 151 -74 49 -216 159 -298 230 l-45 40 -55 -15 c-190 -51
-456 -74 -645 -55 -282 29 -469 89 -654 209 -520 338 -872 905 -967 1557 -22
150 -29 419 -15 575 41 470 168 1010 345 1468 20 52 36 96 36 99 0 6 -100 -1
-230 -16 -41 -5 -241 -28 -445 -50 -203 -23 -406 -45 -450 -51 -44 -6 -183
-22 -310 -36 -126 -14 -322 -36 -435 -48 -187 -22 -222 -24 -209 -12 4 4 176
108 1124 681 248 149 632 382 855 517 223 135 686 415 1030 623 344 208 668
404 720 436 52 32 98 59 103 59 4 0 7 -9 7 -20z m2880 -4544 c36 -13 113 -44
172 -69 58 -25 121 -48 140 -52 18 -4 74 -25 125 -46 50 -21 134 -54 185 -73
51 -19 125 -48 163 -65 39 -16 87 -33 108 -36 20 -3 37 -10 37 -16 0 -26 -73
-230 -89 -251 -17 -21 -27 -23 -98 -22 -189 1 -501 103 -733 239 -143 84 -200
148 -179 202 26 70 92 213 98 213 3 0 35 -11 71 -24z"/>
<path d="M5709 5461 c-196 -131 -473 -473 -604 -746 -89 -186 -188 -514 -219
-726 -18 -121 -21 -342 -6 -439 15 -96 41 -200 50 -200 24 0 177 117 268 204
219 211 359 423 476 722 145 368 213 905 147 1163 -9 36 -21 66 -27 68 -6 2
-45 -19 -85 -46z"/>
</g>
</svg>
